<svg height="492pt" viewBox="-39 0 492 492.00126" width="492pt" xmlns="http://www.w3.org/2000/svg"><path d="m407.976562 252.851562-21.460937 55.621094-33.171875-.980468c-10.542969 15.8125-23.746094 29.679687-39.027344 40.980468l2.4375 33.179688-54.640625 23.898437h-.199219v-43.738281c.125-24.339844 10.363282-47.535156 28.269532-64.019531 3.71875-3.46875 7.21875-7.15625 10.480468-11.050781 19.09375-22.785157 29.179688-51.777344 28.351563-81.492188-1.691406-65.488281-55.378906-118.25-120.890625-118.847656-50.53125-.472656-96.125 30.238281-114.683594 77.238281-18.554687 47.003906-6.230468 100.578125 30.992188 134.75 8.769531 8.070313 15.738281 17.890625 20.460937 28.832031 4.730469 10.949219 7.167969 22.75 7.160157 34.679688v42.589844l-46.539063-17.960938.980469-33.179688c-15.816406-10.539062-29.683594-23.746093-40.980469-39.03125l-33.179687 2.441407-23.910157-54.640625 23.910157-22.917969c-3.417969-18.675781-3.910157-37.765625-1.460938-56.59375l-24.878906-21.46875 21.460937-55.621094 33.167969.980469c10.542969-15.8125 23.75-29.675781 39.03125-40.980469l-2.441406-33.179687 54.640625-23.898438 22.929687 23.898438c18.675782-3.414063 37.773438-3.90625 56.601563-1.457032l21.457031-24.882812 55.621094 21.472656-.980469 33.167969c15.816406 10.542969 29.683594 23.746094 40.980469 39.03125l33.179687-2.441406 23.902344 54.640625-23.902344 22.921875c3.414063 18.675781 3.90625 37.769531 1.460938 56.597656zm0 0" fill="#e48e66"/><path d="m266.675781 252.0625c8.515625 0 15.847657-6.011719 17.507813-14.367188 1.664062-8.351562-2.804688-16.714843-10.671875-19.972656-7.867188-3.261718-16.941407-.511718-21.671875 6.570313-4.734375 7.078125-3.804688 16.515625 2.214844 22.539062 3.34375 3.355469 7.886718 5.234375 12.621093 5.230469zm-59.28125-57.070312c8.515625 0 15.847657-6.011719 17.511719-14.363282 1.660156-8.355468-2.804688-16.71875-10.671875-19.976562-7.867187-3.261719-16.941406-.511719-21.675781 6.570312-4.730469 7.078125-3.804688 16.515625 2.214844 22.539063 3.347656 3.351562 7.886718 5.230469 12.621093 5.230469zm-59.269531 57.070312c8.515625 0 15.847656-6.011719 17.511719-14.367188 1.660156-8.351562-2.808594-16.714843-10.675781-19.972656-7.867188-3.261718-16.941407-.511718-21.671876 6.570313-4.734374 7.078125-3.804687 16.515625 2.214844 22.539062 3.34375 3.355469 7.886719 5.238281 12.621094 5.230469zm180.890625-46.8125c.828125 29.714844-9.257813 58.707031-28.351563 81.492188-3.261718 3.894531-6.761718 7.582031-10.480468 11.050781-17.90625 16.484375-28.144532 39.679687-28.269532 64.019531v20.089844h-109.859374v-20c.007812-11.929688-2.429688-23.730469-7.160157-34.679688-4.722656-10.941406-11.691406-20.761718-20.460937-28.832031-37.222656-34.171875-49.546875-87.746094-30.992188-134.75 18.558594-47 64.152344-77.710937 114.683594-77.238281 65.511719.597656 119.199219 53.359375 120.890625 118.847656zm0 0" fill="#f8ec7d"/><g fill="#6fe3ff"><path d="m266.675781 252.0625c-8.515625 0-15.847656-6.011719-17.511719-14.367188-1.660156-8.351562 2.804688-16.714843 10.671876-19.972656 7.867187-3.261718 16.941406-.511718 21.675781 6.570313 4.730469 7.078125 3.804687 16.515625-2.214844 22.539062-3.34375 3.355469-7.886719 5.234375-12.621094 5.230469zm0 0"/><path d="m261.914062 434.769531v8.070313c0 10.371094-8.40625 18.78125-18.777343 18.78125h-72.300781c-10.371094 0-18.78125-8.410156-18.78125-18.78125v-60.9375h109.859374zm0 0"/><path d="m207.394531 194.992188c-8.515625 0-15.847656-6.011719-17.507812-14.363282-1.664063-8.355468 2.804687-16.71875 10.671875-19.976562 7.867187-3.261719 16.941406-.511719 21.671875 6.570312 4.734375 7.078125 3.804687 16.515625-2.214844 22.539063-3.34375 3.351562-7.886719 5.230469-12.621094 5.230469zm0 0"/><path d="m148.125 252.0625c-8.515625 0-15.847656-6.011719-17.511719-14.367188-1.660156-8.351562 2.808594-16.714843 10.675781-19.972656 7.867188-3.261718 16.941407-.511718 21.671876 6.570313 4.734374 7.078125 3.804687 16.515625-2.214844 22.539062-3.34375 3.355469-7.886719 5.238281-12.621094 5.230469zm0 0"/></g><path d="m392.113281 310.632812 21.460938-55.621093c.910156-2.363281.238281-5.046875-1.679688-6.699219l-22.449219-19.371094c1.953126-17.320312 1.5-34.828125-1.34375-52.027344l21.601563-20.710937c1.816406-1.738281 2.351563-4.429687 1.34375-6.734375l-23.898437-54.636719c-1.015626-2.335937-3.398438-3.773437-5.9375-3.582031l-29.917969 2.203125c-10.648438-13.84375-23.367188-25.960937-37.707031-35.921875l.882812-29.882812c.074219-2.542969-1.464844-4.859376-3.835938-5.773438l-55.625-21.472656c-2.367187-.910156-5.046874-.238282-6.703124 1.679687l-19.367188 22.457031c-17.324219-1.957031-34.832031-1.503906-52.03125 1.34375l-20.71875-21.601562c-1.742188-1.8125-4.429688-2.351562-6.730469-1.34375l-54.640625 23.902344c-2.332031 1.019531-3.765625 3.398437-3.582031 5.933594l2.203125 29.921874c-13.839844 10.648438-25.953125 23.367188-35.917969 37.703126l-29.882812-.882813c-2.546875-.085937-4.867188 1.457031-5.773438 3.839844l-21.460937 55.617187c-.910156 2.367188-.238282 5.046875 1.679687 6.703125l22.457031 19.378907c-1.957031 17.316406-1.503906 34.824218 1.34375 52.019531l-21.601562 20.707031c-1.816406 1.742188-2.355469 4.429688-1.34375 6.734375l23.910156 54.640625c1.011719 2.339844 3.394532 3.777344 5.933594 3.578125l29.921875-2.199219c10.644531 13.839844 23.363281 25.957032 37.703125 35.917969l-.878906 29.890625c-.074219 2.546875 1.460937 4.859375 3.835937 5.777344l42.699219 16.476562v34.242188c.015625 13.679687 11.101562 24.765625 24.78125 24.78125h30.140625v18.378906c0 3.316406 2.6875 6 6 6 3.316406 0 6-2.683594 6-6v-18.378906h30.152344c13.675781-.015625 24.761719-11.101563 24.777343-24.78125v-33.277344l51.246094-22.414062c2.332032-1.019532 3.765625-3.398438 3.578125-5.9375l-2.199219-29.917969c13.835938-10.648438 25.949219-23.367188 35.914063-37.707031l29.886719.882812c2.542968.082031 4.863281-1.460938 5.773437-3.835938zm-136.199219 51.269532v14h-19.597656v-79.0625c.007813-6.722656 5.457032-12.171875 12.179688-12.179688 13.351562 0 24.175781-10.816406 24.179687-24.167968v-3.191407c11.601563-3.019531 19.15625-14.191406 17.632813-26.082031-1.523438-11.890625-11.644532-20.800781-23.632813-20.800781s-22.113281 8.910156-23.632812 20.800781c-1.523438 11.890625 6.027343 23.0625 17.632812 26.082031v3.191407c-.007812 6.722656-5.457031 12.171874-12.179687 12.171874-13.347656.015626-24.167969 10.832032-24.179688 24.179688v79.058594h-10.921875v-175.675782c10.46875-2.714843 17.796875-12.128906 17.863281-22.941406.066407-10.8125-7.152343-20.320312-17.585937-23.160156-10.429687-2.839844-21.472656 1.691406-26.898437 11.042969-5.425782 9.351562-3.882813 21.183593 3.757812 28.832031l.007812.007812c3 3.003907 6.746094 5.152344 10.855469 6.21875v175.675782h-10.917969v-79.0625c-.015624-13.347656-10.832031-24.164063-24.179687-24.179688-3.230469.003906-6.328125-1.277344-8.609375-3.5625-2.285156-2.28125-3.566406-5.378906-3.5625-8.605468v-3.191407c11.601562-3.019531 19.148438-14.1875 17.628906-26.078125-1.523437-11.886718-11.640625-20.796875-23.628906-20.796875s-22.105469 8.910157-23.628906 20.796875c-1.519532 11.890625 6.027344 23.058594 17.628906 26.078125v3.191407c-.003906 13.347656 10.820312 24.171874 24.171875 24.167968 6.722656.007813 12.171875 5.457032 12.179687 12.179688v79.0625h-20.421874v-14c.023437-12.75-2.582032-25.367188-7.652344-37.066406-5.042969-11.71875-12.511719-22.238282-21.910156-30.863282-35.242188-32.359375-47.019532-83.03125-29.660157-127.617187 17.359375-44.585938 60.300781-73.949219 108.144531-73.953125h1.09375c44.867188.417968 85.472657 26.65625 104.289063 67.390625 18.816406 40.730469 12.476563 88.660156-16.289063 123.09375-3.109374 3.703125-6.4375 7.214843-9.976562 10.515625-19.101562 17.675781-30.027344 42.472656-30.179688 68.5zm10.761719-115.839844c-3.144531.007812-6.160156-1.242188-8.378906-3.472656-3.992187-3.996094-4.605469-10.257813-1.464844-14.953125 3.140625-4.691407 9.160157-6.515625 14.378907-4.355469 5.21875 2.164062 8.179687 7.710938 7.078124 13.25-1.101562 5.542969-5.964843 9.53125-11.613281 9.53125zm-59.28125-57.070312c-5.652343 0-10.519531-3.992188-11.625-9.535157s1.859375-11.09375 7.082031-13.261719c5.21875-2.164062 11.242188-.34375 14.386719 4.355469 3.144531 4.695313 2.535157 10.960938-1.460937 14.960938-2.21875 2.230469-5.234375 3.484375-8.382813 3.480469zm-59.269531 57.070312c-5.652344 0-10.523438-3.992188-11.625-9.535156-1.105469-5.546875 1.859375-11.101563 7.082031-13.265625 5.222657-2.164063 11.25-.339844 14.390625 4.363281 3.144532 4.699219 2.527344 10.964844-1.46875 14.964844l-.007812.003906c-2.214844 2.230469-5.230469 3.480469-8.371094 3.46875zm95.011719 209.558594h-72.300781c-7.054688-.007813-12.773438-5.726563-12.78125-12.78125v-2.070313h52.582031c3.3125 0 6-2.683593 6-6 0-3.3125-2.6875-6-6-6h-52.582031v-14.859375h15.582031c3.3125 0 6-2.683594 6-6 0-3.3125-2.6875-6-6-6h-15.582031v-14.007812h97.859374v14.007812h-48.050781c-3.3125 0-6 2.6875-6 6 0 3.316406 2.6875 6 6 6h48.050781v14.859375h-14.007812c-3.316406 0-6 2.6875-6 6 0 3.316407 2.683594 6 6 6h14.007812v2.070313c-.007812 7.054687-5.722656 12.773437-12.777343 12.78125zm110.386719-154.125c-.058594 0-.121094 0-.179688 0-2.003906 0-3.878906 1-4.988281 2.667968-10.152344 15.242188-22.878907 28.601563-37.605469 39.484376-1.65625 1.226562-2.570312 3.210937-2.417969 5.265624l2.128907 28.945313-42.546876 18.605469v-34.652344c.167969-22.667969 9.710938-44.253906 26.363282-59.632812 3.894531-3.636719 7.566406-7.507813 10.988281-11.589844 44.863281-53.679688 38.347656-133.429688-14.628906-179.117188-52.980469-45.691406-132.820313-40.414062-179.324219 11.851563-46.507812 52.261719-42.472656 132.171875 9.0625 179.484375 8.15625 7.492187 14.632812 16.621094 19.011719 26.792968 4.417969 10.195313 6.6875 21.1875 6.664062 32.300782v33.84375l-34.414062-13.28125.851562-28.9375c.0625-2.070313-.945312-4.023438-2.667969-5.171875-15.246093-10.144531-28.605468-22.867188-39.484374-37.597657-1.222657-1.65625-3.210938-2.570312-5.261719-2.417968l-28.945313 2.128906-20.527344-46.914062 20.882813-20.023438c1.457031-1.394531 2.113281-3.425781 1.75-5.410156-3.308594-18.0625-3.785156-36.527344-1.410156-54.734375.257812-2-.503907-4-2.03125-5.316407l-21.679688-18.710937 18.410157-47.714844 28.921874.855469c2.074219.070312 4.03125-.9375 5.171876-2.667969 10.152343-15.242187 22.875-28.601562 37.601562-39.488281 1.652344-1.222656 2.566406-3.210938 2.414062-5.261719l-2.128906-28.945312 46.914063-20.519531 20.03125 20.878906c1.398437 1.453125 3.425781 2.109375 5.410156 1.746094 18.066406-3.304688 36.535156-3.78125 54.746094-1.410157 2 .253907 3.996093-.507812 5.316406-2.03125l18.703125-21.679687 47.710938 18.417968-.851563 28.925782c-.0625 2.066406.949219 4.023437 2.671875 5.167968 15.242188 10.148438 28.601562 22.871094 39.480469 37.601563 1.222656 1.660156 3.210937 2.570313 5.265625 2.414063l28.945312-2.125 20.519532 46.910156-20.875 20.027344c-1.453126 1.394531-2.109376 3.425781-1.75 5.40625 3.304687 18.066406 3.78125 36.535156 1.414062 54.75-.261719 2 .5 4 2.027344 5.316406l21.671875 18.699218-18.410157 47.714844zm0 0" fill="#63316d"/></svg>