<svg height="414pt" viewBox="0 -24 414 414" width="414pt" xmlns="http://www.w3.org/2000/svg"><path d="m407 86.730469v231.570312c0 22.089844-17.910156 40-40 40h-320c-22.089844 0-40-17.910156-40-40v-231.570312zm-219 215.308593v-151.828124h-127v151.828124zm0 0" fill="#e48e66"/><path d="m407 47v39.730469h-400v-39.730469c0-22.089844 17.910156-40 40-40h320c22.089844 0 40 17.910156 40 40zm-240.871094 0c0-8.164062-6.617187-14.78125-14.777344-14.78125-8.164062 0-14.78125 6.617188-14.78125 14.78125s6.617188 14.78125 14.78125 14.78125c8.160157 0 14.777344-6.613281 14.777344-14.773438 0-.003906 0-.003906 0-.007812zm-50.429687 0c.003906-8.164062-6.613281-14.785156-14.777344-14.789062-8.167969-.003907-14.789063 6.613281-14.792969 14.777343 0 8.167969 6.613282 14.789063 14.78125 14.792969 8.160156.003906 14.785156-6.605469 14.789063-14.769531 0-.003907 0-.007813 0-.011719zm-50.4375 0c0-8.164062-6.617188-14.78125-14.78125-14.78125-8.164063 0-14.78125 6.617188-14.78125 14.78125s6.617187 14.78125 14.78125 14.78125c8.160156 0 14.777343-6.613281 14.78125-14.773438 0-.003906 0-.003906 0-.007812zm0 0" fill="#f8ec7d"/><path d="m61 150.210938h127v151.828124h-127zm0 0" fill="#6fe3ff"/><path d="m166.128906 47c0 8.164062-6.617187 14.78125-14.777344 14.78125-8.164062 0-14.78125-6.617188-14.78125-14.78125s6.617188-14.78125 14.78125-14.78125c8.160157 0 14.777344 6.617188 14.777344 14.78125zm0 0" fill="#e48e66"/><path d="m100.910156 32.21875c8.164063 0 14.78125 6.617188 14.78125 14.78125s-6.617187 14.78125-14.78125 14.78125c-8.164062 0-14.78125-6.617188-14.78125-14.78125 0-8.160156 6.617188-14.777344 14.777344-14.78125zm0 0" fill="#e48e66"/><path d="m65.261719 47c0 8.164062-6.617188 14.78125-14.78125 14.78125-8.164063 0-14.78125-6.617188-14.78125-14.78125s6.617187-14.78125 14.78125-14.78125c8.164062 0 14.78125 6.617188 14.78125 14.78125zm0 0" fill="#e48e66"/><g fill="#63316d"><path d="m367 365.300781h-320c-25.914062 0-47-21.085937-47-47v-271.300781c0-25.914062 21.085938-47 47-47h320c25.914062 0 47 21.085938 47 47v271.300781c0 25.914063-21.085938 47-47 47zm-320-351.300781c-18.195312 0-33 14.804688-33 33v271.300781c0 18.195313 14.804688 33 33 33h320c18.195312 0 33-14.804687 33-33v-271.300781c0-18.195312-14.804688-33-33-33zm0 0"/><path d="m350.820312 258.429688h-110c-3.867187 0-7-3.132813-7-7 0-3.867188 3.132813-7 7-7h110c3.867188 0 7 3.132812 7 7 0 3.867187-3.132812 7-7 7zm0 0"/><path d="m350.820312 309.039062h-110c-3.867187 0-7-3.132812-7-7 0-3.863281 3.132813-7 7-7h110c3.867188 0 7 3.136719 7 7 0 3.867188-3.132812 7-7 7zm0 0"/><path d="m350.820312 157.210938h-110c-3.867187 0-7-3.136719-7-7 0-3.867188 3.132813-7 7-7h110c3.867188 0 7 3.132812 7 7 0 3.863281-3.132812 7-7 7zm0 0"/><path d="m350.820312 207.820312h-110c-3.867187 0-7-3.132812-7-7 0-3.867187 3.132813-7 7-7h110c3.867188 0 7 3.132813 7 7 0 3.867188-3.132812 7-7 7zm0 0"/><path d="m407 93.730469h-400c-3.867188 0-7-3.132813-7-7 0-3.867188 3.132812-7 7-7h400c3.867188 0 7 3.132812 7 7 0 3.867187-3.132812 7-7 7zm0 0"/><path d="m100.914062 68.789062c-5.816406 0-11.285156-2.261718-15.398437-6.375-4.117187-4.113281-6.382813-9.582031-6.386719-15.402343 0-12.011719 9.765625-21.789063 21.777344-21.789063h.007812c12.007813 0 21.78125 9.765625 21.785157 21.773438v.003906c.003906 12.011719-9.765625 21.785156-21.777344 21.789062 0 0-.003906 0-.007813 0zm0-29.570312c-4.292968.003906-7.785156 3.496094-7.78125 7.789062 0 2.078126.808594 4.035157 2.28125 5.503907 1.46875 1.46875 3.421876 2.277343 5.5 2.277343h.003907c4.292969 0 7.785156-3.492187 7.78125-7.785156 0-4.292968-3.492188-7.785156-7.785157-7.785156zm0 0"/><path d="m50.480469 68.78125c-12.007813 0-21.78125-9.773438-21.78125-21.78125s9.773437-21.78125 21.78125-21.78125c12.007812 0 21.78125 9.773438 21.78125 21.78125s-9.773438 21.78125-21.78125 21.78125zm0-29.5625c-4.289063 0-7.78125 3.492188-7.78125 7.78125s3.492187 7.78125 7.78125 7.78125c4.289062 0 7.78125-3.492188 7.78125-7.78125s-3.492188-7.78125-7.78125-7.78125zm0 0"/><path d="m151.351562 68.78125c-12.011718 0-21.78125-9.773438-21.78125-21.78125s9.769532-21.78125 21.78125-21.78125c12.007813 0 21.777344 9.773438 21.777344 21.78125s-9.769531 21.78125-21.777344 21.78125zm0-29.5625c-4.292968 0-7.78125 3.492188-7.78125 7.78125s3.488282 7.78125 7.78125 7.78125c4.289063 0 7.777344-3.492188 7.777344-7.78125s-3.488281-7.78125-7.777344-7.78125zm0 0"/><path d="m188 309.039062h-127c-3.867188 0-7-3.132812-7-7v-151.828124c0-3.867188 3.132812-7 7-7h127c3.867188 0 7 3.132812 7 7v151.828124c0 3.867188-3.132812 7-7 7zm-120-14h113v-137.828124h-113zm0 0"/></g></svg>